<svg xmlns="http://www.w3.org/2000/svg" viewBox="0 0 45 45"><defs><style>.cls-1{fill:#f8f8fa;}</style></defs><title>Asset 10</title><g id="Layer_2" data-name="Layer 2"><g id="Layer_1-2" data-name="Layer 1"><rect width="45" height="45" rx="10" ry="10"/><path class="cls-1" d="M12.6,14H32.4A2.6,2.6,0,0,1,35,16.6V28.07a2.61,2.61,0,0,1-2.6,2.6H12.6a2.61,2.61,0,0,1-2.6-2.6V16.6A2.61,2.61,0,0,1,12.6,14ZM32.4,29.63A1.56,1.56,0,0,0,34,28.07h0V16.6A1.56,1.56,0,0,0,32.4,15H12.6A1.57,1.57,0,0,0,11,16.6V28.07a1.56,1.56,0,0,0,1.56,1.56Z"/><path class="cls-1" d="M10.52,17.13h24a.52.52,0,0,1,.52.52v3.12a.52.52,0,0,1-.52.52h-24a.52.52,0,0,1-.52-.52V17.65A.52.52,0,0,1,10.52,17.13ZM11,20.25H34V18.17H11Z"/><path class="cls-1" d="M19.9,24.42H13.65a.52.52,0,1,0,0,1H19.9a.52.52,0,0,0,0-1Z"/><path class="cls-1" d="M19.9,26.5H13.65a.54.54,0,0,0-.46.26.53.53,0,0,0,0,.52.54.54,0,0,0,.46.26H19.9a.52.52,0,0,0,0-1Z"/><path class="cls-1" d="M29.27,23.38h1a1.57,1.57,0,0,1,1.11.45,1.61,1.61,0,0,1,.46,1.11v1a1.57,1.57,0,0,1-1.57,1.56h-1A1.56,1.56,0,0,1,27.71,26v-1A1.56,1.56,0,0,1,29.27,23.38Zm1,3.12a.52.52,0,0,0,.52-.53v-1a.51.51,0,0,0-.15-.37.56.56,0,0,0-.37-.15h-1a.52.52,0,0,0-.52.52v1a.52.52,0,0,0,.52.53Z"/></g></g></svg>