<svg xmlns="http://www.w3.org/2000/svg" viewBox="0 0 37 37"><defs><style>.cls-1{fill:#fff;}.cls-2{fill:#3c0afe;}</style></defs><title>Asset 9</title><g id="Layer_2" data-name="Layer 2"><g id="Layer_1-2" data-name="Layer 1"><path class="cls-1" d="M18.5,37A18.5,18.5,0,1,0,0,18.5,18.5,18.5,0,0,0,18.5,37Z"/><path class="cls-2" d="M21.73,10.63H19.78a3.42,3.42,0,0,0-3.6,3.69V16H14.23a.31.31,0,0,0-.31.31V18.8a.3.3,0,0,0,.31.3h1.95v6.23a.31.31,0,0,0,.31.3h2.56a.3.3,0,0,0,.3-.3V19.1h2.29a.31.31,0,0,0,.31-.3V16.33a.31.31,0,0,0-.31-.31H19.35V14.58c0-.69.16-1,1.06-1h1.31a.31.31,0,0,0,.31-.31V10.94a.31.31,0,0,0-.09-.22.27.27,0,0,0-.21-.09Z"/></g></g></svg>