<svg xmlns="http://www.w3.org/2000/svg" viewBox="0 0 45 45"><defs><style>.cls-1{fill:#fff;}</style></defs><title>Asset 12</title><g id="Layer_2" data-name="Layer 2"><g id="Layer_1-2" data-name="Layer 1"><rect width="45" height="45" rx="10" ry="10"/><path class="cls-1" d="M24.36,23.89h3.4a1.69,1.69,0,0,1,1.69,1.68v2.61a1.69,1.69,0,0,1-1.69,1.68h-3.4a1.68,1.68,0,0,1-1.68-1.68V25.57A1.68,1.68,0,0,1,24.36,23.89Zm3.4,4.75a.46.46,0,0,0,.46-.46V25.57a.46.46,0,0,0-.46-.46h-3.4a.47.47,0,0,0-.46.46v2.61a.47.47,0,0,0,.46.46Z"/><path class="cls-1" d="M34.92,18.85a.61.61,0,0,1,.08.3,3.59,3.59,0,0,1-2.16,3.29.17.17,0,0,1,0,.07v10.7a.62.62,0,0,1-.61.62H12.76a.61.61,0,0,1-.61-.62V22.43A3.58,3.58,0,0,1,10,19.15a.61.61,0,0,1,.08-.3l3.72-6.54a.6.6,0,0,1,.53-.31H30.67a.61.61,0,0,1,.53.31Zm-4.61-5.62H14.68l-2.9,5.11H33.22Zm-2.52,6.34a2.36,2.36,0,0,1-4.64,0Zm-8.26,1.94a2.36,2.36,0,0,0,2.32-1.94H17.21A2.36,2.36,0,0,0,19.53,21.51Zm-3.62-1.94a2.36,2.36,0,0,1-4.64,0Zm.86,13H20.3V26a.89.89,0,0,0-.25-.62.87.87,0,0,0-.62-.26H17.65a.85.85,0,0,0-.62.26.9.9,0,0,0-.26.62Zm14.86,0H21.53V26a2.1,2.1,0,0,0-2.11-2.1H17.64a2.1,2.1,0,0,0-2.1,2.1v6.62H13.37V22.73h.22a3.58,3.58,0,0,0,3-1.59,3.59,3.59,0,0,0,6,0,3.57,3.57,0,0,0,5.93,0,3.58,3.58,0,0,0,3,1.58h.21V32.6Zm-2.53-13a2.35,2.35,0,0,0,2.31,1.94h0a2.37,2.37,0,0,0,2.33-1.94Z"/></g></g></svg>