<svg xmlns="http://www.w3.org/2000/svg" viewBox="0 0 37 37"><defs><style>.cls-1{fill:#fff;}.cls-2{fill:#3c0afe;}</style></defs><title>Asset 7</title><g id="Layer_2" data-name="Layer 2"><g id="Layer_1-2" data-name="Layer 1"><path class="cls-1" d="M18.5,37A18.5,18.5,0,1,0,0,18.5,18.5,18.5,0,0,0,18.5,37Z"/><path class="cls-2" d="M15.14,11h6.72A4.14,4.14,0,0,1,26,15.14v6.72A4.14,4.14,0,0,1,21.86,26H15.14A4.14,4.14,0,0,1,11,21.86V15.14A4.14,4.14,0,0,1,15.14,11Zm6.72,13.67a2.81,2.81,0,0,0,2.81-2.81V15.14a2.81,2.81,0,0,0-2.81-2.81H15.14a2.81,2.81,0,0,0-2.81,2.81v6.72a2.81,2.81,0,0,0,2.81,2.81Z"/><path class="cls-2" d="M14.64,18.5a3.87,3.87,0,1,1,3.86,3.86A3.88,3.88,0,0,1,14.64,18.5Zm1.33,0A2.54,2.54,0,0,0,18.5,21h0A2.53,2.53,0,1,0,16,18.5Z"/><path class="cls-2" d="M22.53,13.51a1,1,0,0,0-1,.78,1,1,0,1,0,1-.78Z"/></g></g></svg>