<svg xmlns="http://www.w3.org/2000/svg" viewBox="0 0 45 45"><defs><style>.cls-1{fill:#5a31fc;}.cls-2{fill:#fff;}</style></defs><title>Asset 14</title><g id="Layer_2" data-name="Layer 2"><g id="Layer_1-2" data-name="Layer 1"><rect class="cls-1" width="45" height="45" rx="10" ry="10"/><path class="cls-2" d="M20.82,30l.32-3a2.09,2.09,0,1,1,2.47,0l.32,3a.5.5,0,0,1-.13.4.52.52,0,0,1-.38.17H21.33a.49.49,0,0,1-.38-.17A.5.5,0,0,1,20.82,30Zm2.57-4.87a1,1,0,0,0-1-.81h0a1,1,0,0,0-.45,2,.52.52,0,0,1,.29.53l-.3,2.7h.92l-.3-2.7a.54.54,0,0,1,.3-.53A1,1,0,0,0,23.39,25.1Z"/><path class="cls-2" d="M29.67,19.09h1.56a.51.51,0,0,1,.52.52v13a2.08,2.08,0,0,1-2.08,2.08H15.08A2.08,2.08,0,0,1,13,32.63v-13a.51.51,0,0,1,.52-.52h1.56V17a7.3,7.3,0,1,1,14.59,0Zm-7.29-8.34A6.25,6.25,0,0,0,16.13,17v2.09h1V17a5.21,5.21,0,1,1,10.41,0v2.09h1.05V17A6.25,6.25,0,0,0,22.38,10.75ZM26.55,17v2.09H18.21V17a4.17,4.17,0,1,1,8.33,0Zm3.12,16.67a1,1,0,0,0,1-1V20.13H14v12.5a1,1,0,0,0,1,1Z"/></g></g></svg>