<svg xmlns="http://www.w3.org/2000/svg" viewBox="0 0 45 45"><defs><style>.cls-1{fill:#fff;}</style></defs><title>Asset 11</title><g id="Layer_2" data-name="Layer 2"><g id="Layer_1-2" data-name="Layer 1"><rect width="45" height="45" rx="10" ry="10"/><path class="cls-1" d="M30.5,31.67h-.34l.33-2a.15.15,0,0,0,0-.07V20.83a2.08,2.08,0,0,0-2.08-2.08H28V12.08A2.08,2.08,0,0,0,25.92,10H17.58a2.08,2.08,0,0,0-2.08,2.08v4.4a1.66,1.66,0,0,0-2.05,2.57A1.24,1.24,0,0,0,13,20v.83a1.25,1.25,0,0,0,.33.84,1.21,1.21,0,0,0-.33.83v.83a1.25,1.25,0,0,0,.33.84A1.21,1.21,0,0,0,13,25v.83a1.25,1.25,0,0,0,1.25,1.25H15.5v.84A2.08,2.08,0,0,0,17.58,30h.54l.55,1.67H18a.83.83,0,0,0-.83.83v1.67A.83.83,0,0,0,18,35H30.5a.83.83,0,0,0,.83-.83V32.5A.83.83,0,0,0,30.5,31.67ZM19.25,10.83h5v.42a.42.42,0,0,1-.42.42H19.67a.42.42,0,0,1-.42-.42Zm-5,10.42h2.92a.83.83,0,0,0,.83-.83.84.84,0,0,0-.83-.84H14.25a.42.42,0,0,0-.42.42v.83A.42.42,0,0,0,14.25,21.25ZM18,22.92a.82.82,0,0,1-.83.83H14.25a.38.38,0,0,1-.29-.12.43.43,0,0,1-.13-.3V22.5a.42.42,0,0,1,.42-.42h2.92a.83.83,0,0,1,.59.25A.85.85,0,0,1,18,22.92Zm-2.5-5a.84.84,0,0,0-.83-.84.85.85,0,0,0-.84.84.84.84,0,0,0,.84.83A.83.83,0,0,0,15.5,17.92Zm-1.67,7.91V25a.42.42,0,0,1,.42-.42h2.92a.84.84,0,0,1,.83.84.83.83,0,0,1-.83.83H14.25a.42.42,0,0,1-.42-.42Zm2.5,1.25v.84h0a1.25,1.25,0,0,0,1.25,1.25h8.34a1.25,1.25,0,0,0,1.25-1.25v-5h-.42a2.09,2.09,0,0,1,0-4.17h.42V12.08a1.26,1.26,0,0,0-.37-.88,1.22,1.22,0,0,0-.88-.37h-.84v.42a1.25,1.25,0,0,1-1.25,1.25H19.67a1.25,1.25,0,0,1-1.25-1.25v-.42h-.84a1.25,1.25,0,0,0-1.25,1.25v6.67h.84a1.66,1.66,0,0,1,1.09,2.92,1.66,1.66,0,0,1,0,2.5,1.66,1.66,0,0,1-1.09,2.91ZM19,30h6.92A2.08,2.08,0,0,0,28,27.92V22.5a.42.42,0,0,0-.42-.42h-.83a1.25,1.25,0,0,1,0-2.5h1.67a1.22,1.22,0,0,1,.88.37,1.26,1.26,0,0,1,.37.88v8.72l-.36,2.12H19.55Zm-1,2.5v1.67H30.5V32.5Z"/><path class="cls-1" d="M19.37,18.87l4.17-4.16.59.58L20,19.46Z"/><path class="cls-1" d="M23.42,20a1.25,1.25,0,1,1,1.25-1.25A1.25,1.25,0,0,1,23.42,20Zm0-.83a.42.42,0,0,0,0-.84.42.42,0,0,0,0,.84Z"/><path class="cls-1" d="M21.33,15.42a1.25,1.25,0,1,1-1.25-1.25A1.25,1.25,0,0,1,21.33,15.42Zm-.83,0a.42.42,0,0,0-.42-.42.41.41,0,0,0-.41.42.41.41,0,0,0,.41.41A.41.41,0,0,0,20.5,15.42Z"/><path class="cls-1" d="M21.33,24.17h.84V25h-.84Z"/><path class="cls-1" d="M23,24.17h.83V25H23Z"/><path class="cls-1" d="M19.67,24.17h.83V25h-.83Z"/></g></g></svg>