<svg xmlns="http://www.w3.org/2000/svg" viewBox="0 0 37 37"><defs><style>.cls-1{fill:#fff;}.cls-2{fill:#3c0afe;}</style></defs><title>Asset 8</title><g id="Layer_2" data-name="Layer 2"><g id="Layer_1-2" data-name="Layer 1"><path class="cls-1" d="M18.5,37A18.5,18.5,0,1,0,0,18.5,18.5,18.5,0,0,0,18.5,37Z"/><path class="cls-2" d="M27,13.54a6.89,6.89,0,0,1-1.89.52,3.26,3.26,0,0,0,1.44-1.82,6.65,6.65,0,0,1-2.08.8,3.28,3.28,0,0,0-5.67,2.24,3.19,3.19,0,0,0,.08.75,9.33,9.33,0,0,1-6.77-3.43,3.28,3.28,0,0,0,1,4.38,3.18,3.18,0,0,1-1.48-.4v0a3.29,3.29,0,0,0,2.63,3.22,3.12,3.12,0,0,1-.86.11,3.18,3.18,0,0,1-.62-.06,3.31,3.31,0,0,0,3.06,2.29,6.58,6.58,0,0,1-4.07,1.4,6.81,6.81,0,0,1-.78,0,9.32,9.32,0,0,0,14.37-7.87c0-.14,0-.28,0-.42A6.63,6.63,0,0,0,27,13.54Z"/></g></g></svg>